PathFileType	4	(X/Y/Z)
DataRate	CameraRate	NumFrames	NumMarkers	Units	OrigDataRate	OrigDataStartFrame	OrigNumFrames	
  120.0	  120.0	    4	     56	     mm	  120.0	      517	    688
Frame#	Time	LASI			RASI			LPSI			RPSI			RTH1			RTH2			RTH3			RLFC			RMFC			LTH1			LTH2			LTH3			LLFC			LMFC			RTB1			RTB2			RTB3			RLMAL			RMMAL			LTB1			LTB2			LTB3			LMMAL			LLMAL			RCAL			RTOE			RMT5			LCAL			LTOE			LMT5			LACR			RACR			CLAV			C7			LASH			LPSH			RASH			RPSH			RUA1			RUA2			RUA3			RLEL			RMEL			LUA1			LUA2			LUA3			LLEL			LMEL			RFAsuperior			RFAradius			RFAulna			LFAsuperior			LFAradius			LFAulna			RHJC			LHJC			
		X1	Y1	Z1	X2	Y2	Z2	X3	Y3	Z3	X4	Y4	Z4	X5	Y5	Z5	X6	Y6	Z6	X7	Y7	Z7	X8	Y8	Z8	X9	Y9	Z9	X10	Y10	Z10	X11	Y11	Z11	X12	Y12	Z12	X13	Y13	Z13	X14	Y14	Z14	X15	Y15	Z15	X16	Y16	Z16	X17	Y17	Z17	X18	Y18	Z18	X19	Y19	Z19	X20	Y20	Z20	X21	Y21	Z21	X22	Y22	Z22	X23	Y23	Z23	X24	Y24	Z24	X25	Y25	Z25	X26	Y26	Z26	X27	Y27	Z27	X28	Y28	Z28	X29	Y29	Z29	X30	Y30	Z30	X31	Y31	Z31	X32	Y32	Z32	X33	Y33	Z33	X34	Y34	Z34	X35	Y35	Z35	X36	Y36	Z36	X37	Y37	Z37	X38	Y38	Z38	X39	Y39	Z39	X40	Y40	Z40	X41	Y41	Z41	X42	Y42	Z42	X43	Y43	Z43	X44	Y44	Z44	X45	Y45	Z45	X46	Y46	Z46	X47	Y47	Z47	X48	Y48	Z48	X49	Y49	Z49	X50	Y50	Z50	X51	Y51	Z51	X52	Y52	Z52	X53	Y53	Z53	X54	Y54	Z54	X55	Y55	Z55	X56	Y56	Z56	

566	4.71667	621.26767	1017.83459	-668.04525	805.86684	1025.10787	-515.88421	563.86787	1044.24659	-496.16873	639.71726	1045.89782	-434.78713	816.88251	875.88540	-411.99687	850.48918	732.67218	-453.49859	804.08930	642.64198	-399.71311	829.67468	540.27326	-403.84694	727.99235	519.11894	-479.23757	505.51747	857.01465	-643.33178	543.67772	751.16792	-686.18681	492.43689	639.14167	-603.85240	488.87146	537.97021	-619.24645	591.79515	514.29053	-558.40190	821.00611	401.43296	-439.18484	832.34555	360.45228	-349.85337	817.45727	226.82425	-395.05910	809.07852	122.59914	-317.44516	754.60421	128.24564	-390.20481	524.12212	395.39750	-624.13986	446.87855	312.70567	-601.90688	500.94403	205.36410	-593.84206	523.43706	122.50090	-543.40737	434.35936	116.72336	-558.04620	726.60153	84.62572	-302.39064	859.16047	79.31516	-468.96945	926.01310	48.47462	-388.51646	452.24426	86.39587	-479.68477	556.38050	74.49839	-661.74595	454.56380	44.82564	-692.27515	484.08478	1516.27096	-567.30619	740.58111	1502.49565	-384.41874	694.33390	1464.44227	-549.13399	599.03414	1519.57570	-463.21932	543.78179	1493.40594	-617.11369	462.90600	1466.78124	-533.95134	776.77297	1477.92161	-451.49628	711.50267	1460.74921	-353.78967	803.50615	1470.38454	-342.49041	881.08998	1445.88018	-375.73834	878.13908	1398.19595	-305.31162	993.26798	1383.05719	-284.62631	978.15823	1329.96543	-317.06963	421.06344	1474.87552	-612.85080	405.90832	1399.92581	-630.26586	392.79221	1443.48432	-711.33889	314.38375	1382.05568	-779.35771	344.99483	1327.57915	-764.16282	1055.39478	1424.59876	-346.15064	1208.87325	1409.17161	-463.68499	1236.22539	1393.52852	-403.14073	350.12692	1414.49272	-847.93711	452.52095	1392.90420	-1026.16479	387.88170	1374.30240	-1043.76227	738.53722	968.46003	-490.80145	609.30956	956.85222	-596.79619	
567	4.72500	621.21213	1017.84105	-667.94498	805.80409	1025.11594	-515.82171	563.81568	1044.25217	-496.09728	639.67895	1045.88590	-434.73309	816.82700	875.87966	-411.97907	850.45554	732.67046	-453.49359	804.06985	642.64200	-399.70899	829.65739	540.26143	-403.85830	727.97479	519.12685	-479.19715	505.45681	857.03172	-643.28157	543.64285	751.17365	-686.15405	492.40164	639.13847	-603.82821	488.84621	537.96289	-619.21633	591.76558	514.29958	-558.37241	820.98280	401.42384	-439.15480	832.32998	360.43385	-349.86676	817.46099	226.82207	-395.07074	809.08076	122.59066	-317.45297	754.60638	128.24775	-390.20431	524.11700	395.41468	-624.17939	446.86232	312.70152	-601.90129	500.95540	205.38152	-593.91963	523.42947	122.49834	-543.43076	434.36338	116.72327	-558.06998	726.59621	84.63043	-302.39741	859.17212	79.31981	-468.99709	925.99903	48.55158	-388.47255	452.24288	86.39271	-479.69104	556.36914	74.49326	-661.75303	454.57474	44.83493	-692.28279	484.04203	1516.25412	-567.29178	740.52122	1502.49729	-384.38628	694.28990	1464.45064	-549.09795	598.98166	1519.59201	-463.17033	543.76209	1493.40150	-617.12192	463.03214	1466.77702	-534.04985	776.72665	1477.93154	-451.45041	711.44323	1460.77632	-353.73882	803.47335	1470.39229	-342.50298	881.03934	1445.87006	-375.69924	878.09568	1398.18764	-305.27964	993.20480	1383.04294	-284.58419	978.09776	1329.95048	-317.03245	421.06615	1474.89020	-612.83483	405.85904	1399.93206	-630.22718	392.74921	1443.48436	-711.28315	314.34474	1382.04343	-779.31049	344.95383	1327.58480	-764.08961	1055.34107	1424.58808	-346.10298	1208.80054	1409.15167	-463.61763	1236.16237	1393.50543	-403.12505	350.10363	1414.47828	-847.90246	452.58237	1392.86104	-1026.10505	387.94129	1374.25611	-1043.69804	738.48485	968.46602	-490.72691	609.25900	956.85385	-596.72248	
568	4.73333	621.16575	1017.84262	-667.86839	805.74681	1025.12029	-515.77060	563.76444	1044.25861	-496.02398	639.64335	1045.87050	-434.67312	816.77956	875.86559	-411.97049	850.42976	732.67022	-453.48309	804.04575	642.63759	-399.72483	829.64143	540.25113	-403.86984	727.96246	519.13166	-479.18117	505.41017	857.03631	-643.23992	543.61509	751.18271	-686.12294	492.37060	639.13554	-603.80019	488.81315	537.96413	-619.18582	591.73467	514.30907	-558.34669	820.96168	401.41475	-439.12826	832.31948	360.41354	-349.88208	817.45358	226.81817	-395.08975	809.08594	122.58329	-317.46073	754.60969	128.24857	-390.20531	524.10782	395.43283	-624.22112	446.83693	312.69832	-601.89108	500.94808	205.39106	-593.95695	523.41956	122.49677	-543.44592	434.36365	116.72090	-558.09057	726.59295	84.63525	-302.39470	859.18321	79.32264	-469.02013	925.99923	48.58161	-388.46587	452.23996	86.39081	-479.69626	556.36687	74.48882	-661.75954	454.58800	44.84192	-692.29491	484.01062	1516.25401	-567.25111	740.45867	1502.50396	-384.35913	694.25011	1464.45450	-549.05658	598.92710	1519.60854	-463.11619	543.73249	1493.39260	-617.09084	463.12708	1466.80111	-534.12549	776.67892	1477.93446	-451.41176	711.38834	1460.80483	-353.68409	803.44697	1470.41139	-342.47483	880.98730	1445.86946	-375.65578	878.04629	1398.17329	-305.24341	993.13937	1383.03626	-284.52639	978.04348	1329.94333	-316.98143	421.05757	1474.89685	-612.80919	405.80909	1399.94249	-630.17713	392.70736	1443.47462	-711.22528	314.30791	1382.02719	-779.25773	344.91548	1327.58857	-764.01634	1055.28902	1424.58319	-346.05628	1208.74053	1409.12140	-463.56032	1236.09635	1393.48431	-403.11934	350.08319	1414.45378	-847.86379	452.61993	1392.81982	-1026.05925	387.97701	1374.21179	-1043.64771	738.44105	968.46758	-490.66654	609.21032	956.85283	-596.65585	
569	4.74167	621.12624	1017.84010	-667.81357	805.69075	1025.11918	-515.71803	563.70797	1044.25679	-495.94342	639.60668	1045.85047	-434.60126	816.73777	875.85266	-411.95341	850.40571	732.67502	-453.45435	804.01383	642.63131	-399.74258	829.62599	540.24998	-403.86688	727.95504	519.13293	-479.18423	505.38360	857.02683	-643.20918	543.59171	751.19606	-686.09154	492.34218	639.13220	-603.76961	488.77470	537.97556	-619.15429	591.70158	514.31396	-558.31133	820.95318	401.41275	-439.12291	832.31248	360.39923	-349.88454	817.44634	226.82350	-395.12064	809.08977	122.57936	-317.46413	754.61727	128.24779	-390.21245	524.09582	395.44747	-624.24992	446.81215	312.69436	-601.87880	500.92917	205.39139	-593.94210	523.41376	122.49403	-543.44696	434.35949	116.71596	-558.09773	726.59255	84.63523	-302.38448	859.18968	79.31953	-469.02996	926.01420	48.55680	-388.49581	452.23520	86.38710	-479.69833	556.37560	74.48844	-661.76121	454.59917	44.84174	-692.30309	483.98317	1516.26107	-567.19107	740.39868	1502.51238	-384.32040	694.21308	1464.45338	-549.00033	598.87437	1519.62088	-463.05249	543.69304	1493.38243	-617.03307	463.14662	1466.81983	-534.13087	776.62670	1477.93419	-451.35777	711.33710	1460.82471	-353.62093	803.42421	1470.43499	-342.39319	880.93444	1445.87841	-375.59501	877.99221	1398.15234	-305.19694	993.07535	1383.03462	-284.45208	977.99215	1329.94421	-316.90955	421.04300	1474.88838	-612.77893	405.75885	1399.94958	-630.11135	392.67529	1443.45227	-711.16777	314.28540	1382.00226	-779.19926	344.87991	1327.58191	-763.94321	1055.23890	1424.58027	-346.01115	1208.71258	1409.08542	-463.52642	1236.02908	1393.46240	-403.09593	350.06374	1414.41787	-847.81301	452.62280	1392.77752	-1026.02887	387.97805	1374.16641	-1043.61277	738.40141	968.46124	-490.61434	609.16085	956.84811	-596.59285	
